<svg width="140" height="49" viewBox="0 0 140 49" fill="none" xmlns="http://www.w3.org/2000/svg">
<path d="M9.45007 49C6.55672 49 4.2467 48.1391 2.52002 46.4174C0.840007 44.7422 0 42.462 0 39.5769C0 37.576 0.303336 35.5052 0.910007 33.3647C1.51668 31.1776 2.40335 28.9207 3.57003 26.594C5.06337 23.6159 6.86005 20.9402 8.96007 18.567C11.1068 16.1472 13.4401 14.2393 15.9601 12.8433C18.5268 11.4473 21.1635 10.7493 23.8702 10.7493C25.6435 10.7493 26.9269 11.1914 27.7202 12.0755C28.5602 12.9131 28.9802 14.0299 28.9802 15.4259C28.9802 16.6358 28.7236 17.9853 28.2102 19.4744C27.6969 20.9169 27.0669 22.2664 26.3202 23.5228C25.6202 24.7327 24.8969 25.6633 24.1502 26.3148C23.9635 26.501 23.7535 26.594 23.5202 26.594C23.2869 26.594 23.1702 26.4777 23.1702 26.245C23.1702 25.9193 23.3335 25.5935 23.6602 25.2678C24.4535 24.5698 25.1769 23.453 25.8302 21.9174C26.4835 20.3818 26.8102 18.916 26.8102 17.5199C26.8102 16.3101 26.5302 15.3561 25.9702 14.6581C25.4102 13.9136 24.5235 13.5413 23.3102 13.5413C19.9502 13.5413 16.6835 14.9839 13.5101 17.8689C11.4101 19.7768 9.52007 21.9872 7.84006 24.5C6.16005 27.0128 4.8067 29.5722 3.78003 32.1781C2.75335 34.7374 2.12335 37.0874 1.89001 39.2279C1.75001 40.8566 2.00668 42.3457 2.66002 43.6952C3.36003 45.0912 4.34003 46.1614 5.60004 46.906C6.86005 47.6971 8.2834 48.0228 9.87008 47.8832C14.1168 47.5109 18.2701 45.5798 22.3302 42.0897C26.3902 38.5532 30.6836 33.6904 35.2103 27.5014C34.6503 26.943 34.2769 26.2683 34.0903 25.4772C33.9969 24.7327 34.1369 24.151 34.5103 23.7322C34.9303 23.2669 35.4436 23.0342 36.0503 23.0342C36.8436 23.0342 37.4736 23.2669 37.9403 23.7322C38.7336 22.3362 40.2036 19.8234 42.3503 16.1937C42.6303 15.7284 43.097 14.9373 43.7503 13.8205C44.4504 12.6572 45.197 11.3775 45.9904 9.98148C46.7837 8.53894 47.507 7.18946 48.1604 5.93305C48.207 5.88651 48.2304 5.79345 48.2304 5.65385C48.2304 5.56078 48.1137 5.35138 47.8804 5.02564C47.5537 4.79297 47.507 4.53704 47.7404 4.25783L49.5604 0.558406C49.7937 0.186135 50.1904 0 50.7504 0C51.3104 0 51.8237 0.139602 52.2904 0.418806C52.8037 0.698008 53.0371 1.00048 52.9904 1.32621C52.4771 3.46676 51.1471 6.39839 49.0004 10.1211C46.9004 13.7972 44.1703 18.1714 40.8103 23.2436C40.2503 24.0812 39.7836 24.6861 39.4103 25.0584L39.2703 25.198C39.1303 25.3376 39.0836 25.5237 39.1303 25.7564L39.2703 26.8034C39.9703 27.0361 40.4837 27.1524 40.8103 27.1524C42.397 27.1524 44.077 26.8965 45.8504 26.3846C47.6237 25.8262 49.3271 25.1282 50.9604 24.2906C52.6404 23.453 54.0638 22.6154 55.2304 21.7778C58.2171 19.5907 60.7371 17.3571 62.7905 15.0769C64.8905 12.7502 66.6872 10.2607 68.1805 7.60826C68.4139 7.04986 68.5305 6.37512 68.5305 5.58405C68.6239 5.07218 68.7405 4.58357 68.8805 4.11823C69.0672 3.6529 69.2772 3.25736 69.5105 2.93162C69.6972 2.60589 70.0706 2.44302 70.6306 2.44302C71.1906 2.44302 71.6806 2.60589 72.1006 2.93162C72.5672 3.21083 72.7539 3.55983 72.6606 3.97864C72.2406 5.65385 71.2139 7.63153 69.5805 9.91168C67.9472 12.1918 65.9638 14.4953 63.6305 16.8219C61.3438 19.1486 58.9171 21.2426 56.3504 23.104C55.0438 24.0812 53.4804 25.0119 51.6604 25.896C49.8871 26.7336 48.0437 27.4316 46.1304 27.99C44.217 28.5019 42.3737 28.7578 40.6003 28.7578H39.8303C40.2036 30.4796 40.647 31.9919 41.1603 33.2949C41.6737 34.5978 42.397 35.924 43.3303 37.2735C44.3103 38.623 45.3137 39.7398 46.3404 40.6239C47.367 41.4615 48.5571 41.8803 49.9104 41.8803C50.7971 41.8803 51.7771 41.7407 52.8504 41.4615C53.9238 41.1358 54.6004 40.7403 54.8804 40.2749C55.1604 39.8561 55.5104 39.6467 55.9304 39.6467C56.2571 39.6467 56.4204 39.7631 56.4204 39.9957C56.4204 40.1353 56.3504 40.3215 56.2104 40.5541C55.7904 41.1591 55.0904 41.8571 54.1104 42.6482C53.1771 43.4858 52.2204 44.1838 51.2404 44.7422C50.2604 45.3471 49.4437 45.6496 48.7904 45.6496C47.017 45.51 45.5237 44.9516 44.3103 43.9744C43.097 42.9972 41.9303 41.415 40.8103 39.2279C40.1103 37.7388 39.4103 35.831 38.7103 33.5043L37.9403 30.9217C37.847 30.4098 37.7303 29.9444 37.5903 29.5256C37.4503 29.1068 37.3336 28.7346 37.2403 28.4088L36.8903 28.2692C32.1303 34.6909 27.4169 39.7398 22.7502 43.416C18.0835 47.0921 13.6501 48.9535 9.45007 49Z" fill="#2D2D2D"/>
<path d="M67.2262 43.9744C67.1329 43.9744 67.0396 43.9511 66.9462 43.9046C66.8529 43.9046 66.7596 43.8813 66.6662 43.8348C66.0129 43.509 65.5929 43.0437 65.4062 42.4387C65.2195 41.8338 65.1729 41.066 65.2662 40.1353C65.3596 39.7631 65.4529 39.1116 65.5462 38.1809C65.6862 37.2502 65.8496 36.5057 66.0362 35.9473L62.4662 39.3675L60.5062 41.2521C59.1528 42.6016 58.0328 43.2764 57.1462 43.2764C56.7728 43.2764 56.4695 43.1368 56.2361 42.8576C55.8161 42.3457 55.6061 41.7175 55.6061 40.9729C55.6061 39.9957 55.8628 38.9487 56.3761 37.8319C56.8895 36.7151 57.4962 35.6448 58.1962 34.6211C58.8962 33.5508 59.5262 32.6667 60.0862 31.9687C61.4862 30.2469 62.8395 28.8974 64.1462 27.9202C65.4996 26.943 66.8996 26.4544 68.3462 26.4544C69.1396 26.4544 69.9096 26.594 70.6563 26.8732C71.4496 27.1524 72.1729 27.6178 72.8263 28.2692L72.8963 28.339C72.8963 28.4786 72.7796 28.6182 72.5463 28.7578C72.4529 28.8509 72.3596 28.9207 72.2663 28.9672C72.2196 29.0138 72.1729 29.0603 72.1263 29.1068C71.5663 29.6652 70.9363 30.5959 70.2363 31.8989C69.5362 33.2018 68.9296 34.5746 68.4162 36.0171C67.9029 37.4131 67.6462 38.623 67.6462 39.6467C67.6462 40.5774 67.8796 41.2056 68.3462 41.5313C68.5796 41.6709 68.8362 41.7407 69.1162 41.7407C69.7229 41.7407 70.5629 41.3685 71.6363 40.6239C71.6829 40.5774 71.7763 40.5076 71.9163 40.4145C72.1029 40.2749 72.3596 40.0888 72.6863 39.8561C73.0596 39.5769 73.3629 39.4373 73.5963 39.4373C73.8296 39.4373 73.9463 39.5304 73.9463 39.7165C73.9463 39.9957 73.7596 40.3215 73.3863 40.6937C73.1063 40.9264 72.7796 41.1823 72.4063 41.4615C72.0796 41.7407 71.6829 42.0199 71.2163 42.2991C70.5163 42.811 69.7929 43.2066 69.0462 43.4858C68.2996 43.8115 67.6929 43.9744 67.2262 43.9744ZM59.3162 39.5071C60.2962 39.5071 62.1162 38.0646 64.7762 35.1795C65.4762 34.3884 66.1062 33.6439 66.6662 32.9459C67.2262 32.2013 67.7396 31.4801 68.2062 30.7821C69.0462 29.4326 69.3262 28.5019 69.0462 27.99C68.9062 27.7108 68.6262 27.5712 68.2062 27.5712C67.6929 27.5712 66.9929 27.8504 66.1062 28.4088C65.2195 28.9207 64.3095 29.5954 63.3762 30.433C62.4895 31.2707 61.6729 32.1083 60.9262 32.9459C60.4128 33.5973 59.8995 34.5048 59.3862 35.6681C58.8728 36.8314 58.6162 37.7854 58.6162 38.5299C58.6162 39.1814 58.8495 39.5071 59.3162 39.5071Z" fill="#2D2D2D"/>
<path d="M75.6957 44.3932C75.3691 44.3932 75.2057 44.114 75.2057 43.5556C75.2057 43.0902 75.2991 42.5318 75.4857 41.8803C75.7191 41.2289 75.9758 40.6239 76.2558 40.0655C76.6758 39.2745 77.3058 37.8784 78.1458 35.8775C79.1258 33.6904 79.9424 31.9454 80.5958 30.6425C81.2491 29.293 81.8791 28.2692 82.4858 27.5712C83.1391 26.7802 83.6525 26.3846 84.0258 26.3846C84.2591 26.3846 84.4458 26.5475 84.5858 26.8732C84.7258 27.1524 84.7958 27.4782 84.7958 27.8504C84.7958 28.2227 84.7492 28.4554 84.6558 28.5484C84.2825 28.9207 83.7925 29.5489 83.1858 30.433C82.5791 31.3172 82.0191 32.2013 81.5058 33.0855C80.5258 34.9003 80.0358 36.2498 80.0358 37.1339C80.0358 37.227 80.0358 37.32 80.0358 37.4131C80.0825 37.5062 80.1291 37.5992 80.1758 37.6923C80.7358 37.4131 81.2491 37.1339 81.7158 36.8547C82.1825 36.5755 82.7191 36.18 83.3258 35.6681L87.5958 31.7593C88.0625 31.3405 88.4825 30.9915 88.8559 30.7123C89.2292 30.433 89.5325 30.2004 89.7659 30.0142C90.2325 29.6885 90.6759 29.5256 91.0959 29.5256C91.4692 29.5256 91.9125 29.7583 92.4259 30.2236C92.6592 30.4563 92.7759 31.0845 92.7759 32.1083V33.8533C92.7759 34.0394 92.7525 34.2255 92.7059 34.4117C92.7059 34.5513 92.7059 34.7142 92.7059 34.9003C92.7059 35.5052 92.7759 36.0404 92.9159 36.5057C93.1026 36.9245 93.3592 37.1339 93.6859 37.1339C93.8259 37.1339 94.0126 37.0176 94.2459 36.7849L96.2059 34.4815C97.8393 32.5736 99.0993 31.1776 99.9859 30.2934C100.873 29.4093 101.876 28.8044 102.996 28.4786C103.136 28.4321 103.253 28.4088 103.346 28.4088C103.486 28.3623 103.603 28.339 103.696 28.339C104.116 28.339 104.466 28.4786 104.746 28.7578C105.073 29.037 105.166 29.4093 105.026 29.8746C104.839 30.6192 104.583 31.4801 104.256 32.4573C103.976 33.3879 103.719 34.1325 103.486 34.6909C102.926 35.8077 102.646 36.6918 102.646 37.3433C102.646 37.7621 102.809 38.0413 103.136 38.1809C103.509 38.3205 103.859 38.4136 104.186 38.4601C104.559 38.5067 104.746 38.5997 104.746 38.7393C105.679 38.4136 106.379 38.2507 106.846 38.2507C107.313 38.2507 107.429 38.4136 107.196 38.7393C106.963 39.0185 106.543 39.3675 105.936 39.7863C105.329 40.2051 104.653 40.5774 103.906 40.9031C103.206 41.1823 102.576 41.3219 102.016 41.3219C100.849 41.3219 100.266 40.6937 100.266 39.4373C100.266 38.7859 100.359 38.1809 100.546 37.6225C101.199 35.2493 101.526 33.7137 101.526 33.0157C101.526 32.3177 101.339 31.9687 100.966 31.9687C100.126 31.9687 98.3293 33.6439 95.5759 36.9943C95.2959 37.32 94.9692 37.669 94.5959 38.0413C94.2692 38.4136 93.8959 38.7859 93.4759 39.1581C92.9159 39.67 92.3792 40.2051 91.8659 40.7635C91.5859 41.0427 91.2125 41.1823 90.7459 41.1823C89.7659 41.1823 89.2292 40.8333 89.1359 40.1353C89.0892 39.3908 89.0425 38.7859 88.9959 38.3205C88.9959 37.8086 88.9959 37.4596 88.9959 37.2735C88.9025 36.0636 88.8325 35.2493 88.7859 34.8305C88.7392 34.4117 88.5292 34.2023 88.1558 34.2023C87.6892 34.2023 86.5225 34.9468 84.6558 36.4359C82.1358 38.4368 79.8258 40.6705 77.7258 43.1368C76.8391 43.9744 76.1624 44.3932 75.6957 44.3932Z" fill="#2D2D2D"/>
<path d="M111.563 42.8576C110.583 42.8576 109.719 42.6016 108.973 42.0897C107.759 41.1591 107.153 39.7631 107.153 37.9017C107.153 36.0404 107.806 34.0627 109.113 31.9687C110.419 29.8746 112.403 27.9435 115.063 26.1752C115.53 25.8495 116.16 25.6866 116.953 25.6866C117.98 25.6866 118.89 25.9658 119.683 26.5242C120.523 27.0826 120.85 27.8039 120.663 28.688C120.336 30.1306 119.613 31.4103 118.493 32.5271C117.42 33.6439 116.136 34.6444 114.643 35.5285C113.196 36.3661 111.703 37.1804 110.163 37.9715C110.116 38.1111 110.069 38.2507 110.023 38.3903C110.023 38.5299 110.023 38.6695 110.023 38.8091C110.023 39.4606 110.233 40.0423 110.653 40.5541C111.119 41.0195 111.749 41.2521 112.543 41.2521C113.15 41.2521 113.663 41.1591 114.083 40.9729C114.83 40.6937 115.436 40.4378 115.903 40.2051C116.416 39.9725 117 39.6235 117.653 39.1581C118.306 38.6928 119.193 37.9948 120.313 37.0641C120.826 36.6918 121.13 36.5057 121.223 36.5057C121.503 36.5057 121.596 36.7151 121.503 37.1339C121.036 37.8784 120.22 38.6928 119.053 39.5769C117.933 40.4611 116.673 41.2289 115.273 41.8803C113.92 42.5318 112.683 42.8576 111.563 42.8576ZM110.583 36.0869C110.956 36.0869 111.726 35.7146 112.893 34.9701C114.06 34.2255 115.156 33.4112 116.183 32.5271C117.956 30.8984 118.843 29.642 118.843 28.7578C118.843 28.5252 118.773 28.3158 118.633 28.1296C118.493 27.897 118.283 27.7806 118.003 27.7806C117.116 27.7806 115.623 28.8276 113.523 30.9217C112.076 32.3177 111.096 34.0394 110.583 36.0869Z" fill="#2D2D2D"/>
<path d="M122.15 48.5812C121.917 48.5812 121.8 48.3718 121.8 47.953C121.8 47.8599 121.8 47.7203 121.8 47.5342C121.847 47.3946 121.893 47.2317 121.94 47.0456L124.95 39.5071L128.52 30.7123C127.96 30.6657 127.143 30.689 126.07 30.7821C124.997 30.8286 124.087 30.9217 123.34 31.0613C123.06 31.1078 122.827 31.1543 122.64 31.2009C122.5 31.2009 122.383 31.2009 122.29 31.2009C121.917 31.2009 121.66 31.038 121.52 30.7123C121.567 30.433 121.823 30.1771 122.29 29.9444C122.523 29.8514 122.803 29.7816 123.13 29.735C123.457 29.642 123.853 29.5489 124.32 29.4558C124.833 29.3628 125.277 29.293 125.65 29.2464C126.07 29.1999 126.373 29.1534 126.56 29.1068C126.793 29.0603 127.027 29.0138 127.26 28.9672C127.493 28.9207 127.773 28.8742 128.1 28.8276C128.38 28.7811 128.683 28.7346 129.01 28.688C129.337 28.6415 129.687 28.5717 130.06 28.4786C130.433 27.9668 130.993 27.0594 131.74 25.7564C132.487 24.4535 133.443 22.7317 134.61 20.5912C135.543 18.8694 136.29 17.5199 136.85 16.5427C137.457 15.519 137.877 14.8443 138.11 14.5185C138.53 13.9601 139.02 13.6809 139.58 13.6809C139.86 13.6809 140 13.7972 140 14.0299C140 14.0764 139.883 14.3789 139.65 14.9373C139.37 15.4027 138.903 16.2635 138.25 17.5199C137.597 18.7764 136.897 20.1491 136.15 21.6382C135.403 23.1273 134.727 24.5233 134.12 25.8262C133.513 27.1292 133.093 28.0831 132.86 28.688C133.093 28.6415 133.35 28.6182 133.63 28.6182C133.957 28.6182 134.353 28.6182 134.82 28.6182C135.333 28.6182 135.8 28.6415 136.22 28.688C136.687 28.688 137.083 28.7113 137.41 28.7578C138.063 28.8974 138.39 29.0836 138.39 29.3162C138.39 29.4093 138.18 29.5722 137.76 29.8048C137.527 29.8979 137.083 29.991 136.43 30.084C135.777 30.1771 134.913 30.2702 133.84 30.3632C133.56 30.3632 133.257 30.3865 132.93 30.433C132.603 30.433 132.253 30.4563 131.88 30.5029C130.48 32.783 128.567 36.5755 126.14 41.8803C125.253 43.6486 124.577 45.0214 124.11 45.9986C123.643 46.9758 123.363 47.5575 123.27 47.7436C122.85 48.302 122.477 48.5812 122.15 48.5812Z" fill="#2D2D2D"/>
</svg>
