<?xml version="1.0" encoding="UTF-8"?>
<!DOCTYPE svg PUBLIC "-//W3C//DTD SVG 1.1//EN" "http://www.w3.org/Graphics/SVG/1.1/DTD/svg11.dtd">
<!-- Creator: CorelDRAW 2020 (64-Bit) -->
<svg xmlns="http://www.w3.org/2000/svg" xml:space="preserve" width="182.88mm" height="129.201mm" version="1.1" style="shape-rendering:geometricPrecision; text-rendering:geometricPrecision; image-rendering:optimizeQuality; fill-rule:evenodd; clip-rule:evenodd"
viewBox="0 0 18288 12920.12"
 xmlns:xlink="http://www.w3.org/1999/xlink"
 xmlns:xodm="http://www.corel.com/coreldraw/odm/2003">
 <defs>
  <style type="text/css">
   <![CDATA[
    .fil0 {fill:#2B2A29;fill-rule:nonzero}
   ]]>
  </style>
 </defs>
 <g id="Слой_x0020_1">
  <metadata id="CorelCorpID_0Corel-Layer"/>
  <path class="fil0" d="M7822.35 5802.63l0 -102.03c40.64,-27.09 82.55,-61.38 125.73,-102.87 42.76,-41.06 89.33,-91.44 138.86,-151.13l452.54 -966.89c7.62,-16.51 17.78,-39.37 31.33,-68.16 41.06,-93.55 76.2,-140.12 105.41,-140.12 8.89,0 16.93,4.66 23.28,13.55 6.77,9.31 10.16,20.74 10.16,34.71 0,32.17 -60.54,174.84 -181.19,427.57 -58.42,120.65 -104.98,217.59 -138.85,291.25l-385.66 819.57c241.3,-238.76 424.61,-409.36 549.91,-511.38 125.31,-102.03 212.52,-153.25 262.05,-153.25 12.27,0 22.01,5.5 28.78,16.09 6.35,11 9.74,26.67 9.74,47.41 0,10.58 -2.12,22.44 -6.35,35.98 -3.81,13.13 -12.28,34.29 -24.55,63.08l-261.62 568.11c-5.93,13.13 -9.74,22.44 -11.86,28.37 -2.11,5.92 -2.96,9.73 -2.96,12.27 0,6.78 1.27,12.28 4.23,16.09 2.97,4.23 6.35,6.77 10.59,7.62 14.39,0 60.11,-27.94 138,-83.82 77.9,-55.88 178.65,-132.93 301.84,-231.14l0 101.6 -58.42 44.87c-273.05,212.09 -438.15,318.35 -495.3,318.35 -13.97,0 -25.82,-6.77 -35.98,-20.74 -9.74,-13.55 -14.82,-31.33 -14.82,-52.92 0,-9.31 2.54,-21.59 8.04,-36.83 5.51,-15.24 13.13,-33.02 22.86,-52.92l248.08 -521.97c13.97,-28.36 22.43,-46.14 25.82,-53.34 3.39,-7.62 5.08,-13.12 5.08,-16.08 0,-7.62 -0.85,-13.13 -2.54,-16.94 -1.69,-3.81 -4.23,-5.5 -7.2,-5.5 -11,0 -42.33,19.47 -93.98,58.42 -51.64,38.52 -110.06,88.05 -175.26,147.32 -80.43,70.27 -155.78,141.39 -226.48,213.36 -70.7,71.97 -133.35,140.55 -187.96,205.74 -8.47,10.16 -19.9,24.13 -34.71,42.33 -52.92,68.58 -97.37,102.45 -132.93,102.45 -15.66,0 -27.94,-5.93 -37.25,-17.78 -8.89,-12.28 -13.55,-27.94 -13.55,-47.84 0,-24.13 37.68,-104.14 113.03,-240.03 35.56,-63.5 63.5,-115.14 84.24,-154.09 -31.32,28.79 -60.96,54.61 -89.32,76.2 -27.94,22.01 -55.03,40.22 -80.86,55.46zm2002.79 -129.12l0 101.6c-186.69,149.44 -322.16,245.96 -405.55,289.56 -83.4,44.03 -160.87,66.04 -231.99,66.04 -82.55,0 -146.47,-24.55 -191.35,-73.66 -45.29,-49.53 -67.73,-119.38 -67.73,-210.4 0,-71.96 16.93,-143.51 50.38,-213.78 33.44,-70.27 82.55,-138.01 148.16,-203.62 72.39,-71.97 146.05,-127.85 219.71,-168.07 74.09,-40.21 141.4,-60.11 201.51,-60.11 51.22,0 91.44,12.28 119.8,36.41 28.37,24.55 42.76,58.84 42.76,102.44 0,114.3 -58.42,215.9 -175.26,305.65 -117.26,89.75 -258.23,134.62 -423.33,134.62 -18.21,0 -31.75,0 -40.64,-0.42 -8.47,-0.43 -16.94,-1.27 -25.4,-2.12 -3.81,13.12 -6.78,25.82 -8.47,37.25 -1.69,11.43 -2.54,23.71 -2.54,35.99 0,60.96 13.97,107.52 42.33,138.85 27.94,31.33 69.43,46.99 124.04,46.99 61.81,0 132.08,-21.17 210.82,-63.92 78.32,-42.34 215.9,-142.24 412.75,-299.3zm-764.12 15.24c13.55,1.69 26.67,2.96 39.8,3.81 13.12,0.85 27.09,1.27 41.06,1.27 114.72,0 220.56,-38.1 317.08,-114.72 96.94,-76.2 145.2,-151.13 145.2,-224.79 0,-19.9 -6.77,-35.56 -20.32,-46.99 -13.97,-11.43 -32.17,-17.36 -55.46,-17.36 -66.04,0 -145.62,38.1 -238.33,113.88 -93.14,76.2 -169.34,171.02 -229.03,284.9zm1379.22 -15.24l0 101.6c-25.82,19.9 -62.65,48.68 -110.49,85.94 -231.56,179.91 -369.57,269.66 -414.44,269.66 -23.29,0 -40.64,-5.93 -52.07,-17.36 -11.43,-11.85 -17.36,-29.63 -17.36,-53.76 0,-15.66 2.96,-35.14 9.31,-58.84 5.93,-23.71 18.21,-60.12 36.41,-108.8l86.78 -237.07c-31.32,27.94 -62.65,54.19 -94.4,78.74 -31.33,24.56 -63.5,47.42 -96.52,69.01l0 -102.03c67.73,-50.37 127,-100.75 177.8,-151.13 50.8,-50.37 79.59,-84.66 86.36,-102.87l376.34 -1027.85c21.17,-60.11 38.95,-99.91 52.92,-118.96 13.97,-19.05 30.06,-28.36 48.26,-28.36 13.12,0 24.55,5.93 33.87,17.36 9.73,11.43 14.39,25.4 14.39,41.06 0,22.86 -9.31,67.31 -28.36,132.93 -19.05,66.04 -45.3,142.66 -78.32,230.29 -34.71,90.59 -73.24,184.15 -116.42,279.82 -42.75,96.1 -66.04,148.59 -69.42,157.48l-284.48 795.02c-3.81,10.59 -7.2,19.9 -9.32,27.94 -2.11,7.62 -2.96,12.28 -2.96,13.97 0,5.08 1.69,9.74 5.08,14.4 3.39,4.65 6.35,6.77 9.74,6.77 13.54,0 57.99,-27.52 134.19,-82.55 76.2,-55.03 177.38,-132.5 303.11,-232.41zm617.64 0l0 101.6c-25.82,19.9 -62.65,48.68 -110.49,85.94 -231.56,179.91 -369.57,269.66 -414.44,269.66 -23.29,0 -40.64,-5.93 -52.07,-17.36 -11.43,-11.85 -17.36,-29.63 -17.36,-53.76 0,-15.66 2.96,-35.14 9.31,-58.84 5.93,-23.71 18.21,-60.12 36.41,-108.8l86.78 -237.07c-31.32,27.94 -62.65,54.19 -94.4,78.74 -31.33,24.56 -63.5,47.42 -96.52,69.01l0 -102.03c67.73,-50.37 127,-100.75 177.8,-151.13 50.8,-50.37 79.59,-84.66 86.36,-102.87l376.34 -1027.85c21.17,-60.11 38.95,-99.91 52.92,-118.96 13.97,-19.05 30.06,-28.36 48.26,-28.36 13.12,0 24.55,5.93 33.87,17.36 9.73,11.43 14.39,25.4 14.39,41.06 0,22.86 -9.31,67.31 -28.36,132.93 -19.05,66.04 -45.3,142.66 -78.32,230.29 -34.71,90.59 -73.24,184.15 -116.42,279.82 -42.75,96.1 -66.04,148.59 -69.42,157.48l-284.48 795.02c-3.81,10.59 -7.2,19.9 -9.32,27.94 -2.11,7.62 -2.96,12.28 -2.96,13.97 0,5.08 1.69,9.74 5.08,14.4 3.39,4.65 6.35,6.77 9.74,6.77 13.54,0 57.99,-27.52 134.19,-82.55 76.2,-55.03 177.38,-132.5 303.11,-232.41zm539.32 91.44c38.1,-68.16 66.89,-128.27 86.79,-180.34 19.89,-52.07 29.63,-92.71 29.63,-121.92 0,-12.28 -3.81,-23.28 -11.85,-33.44 -7.62,-9.74 -16.51,-14.82 -26.67,-14.82 -22.86,0 -46.57,24.98 -70.28,74.51 -24.13,49.95 -35.98,102.87 -35.98,159.17 0.85,19.9 3.39,38.95 7.62,57.57 3.81,18.63 11.01,38.53 20.74,59.27zm350.1 -100.75l0 100.75c-68.58,54.61 -124.88,92.71 -169.33,114.3 -44.45,22.01 -85.52,33.02 -122.35,33.02 -6.77,0 -19.05,-0.85 -37.25,-2.54 -6.77,-0.85 -11.85,-1.69 -16.09,-2.54 -65.19,75.35 -127,131.66 -184.15,168.49 -57.57,36.83 -113.45,55.03 -167.21,55.03 -70.28,0 -126.16,-26.67 -168.07,-80.01 -41.91,-53.34 -62.65,-125.31 -62.65,-216.32 0,-105.41 27.09,-206.59 81.7,-303.96 54.61,-97.79 130.81,-182.03 228.6,-253.15 43.61,-31.33 91.44,-58 142.67,-79.59 51.22,-21.59 88.47,-32.17 111.76,-32.17 9.73,0 18.2,3.81 24.55,11.85 6.77,7.62 10.16,17.36 10.16,28.79 0,20.74 -25.82,42.33 -77.05,64.35 -51.64,22.43 -94.4,44.87 -128.27,66.88 -83.39,55.46 -152.4,129.97 -206.16,223.95 -54.19,93.55 -81.28,183.72 -81.28,269.66 0,56.73 14.39,104.99 42.76,144.36 28.78,39.37 62.65,58.84 102.44,58.84 36.41,0 75.78,-14.82 118.54,-44.87 42.33,-30.06 91.01,-76.63 145.62,-140.13 -20.74,-33.86 -36.4,-66.88 -46.14,-99.48 -10.16,-32.17 -15.24,-65.19 -15.24,-99.06 0,-87.21 24.55,-166.79 73.66,-239.18 49.53,-72.39 99.48,-108.8 149.86,-108.8 30.48,0 55.88,13.55 76.2,41.06 20.32,27.1 30.48,61.81 30.48,102.87 0,49.96 -12.7,108.38 -37.68,175.26 -24.97,67.31 -60.11,133.35 -104.56,198.97l5.08 0c27.94,0 61.81,-11.01 102.02,-33.02 39.8,-22.01 99.06,-63.08 177.38,-123.61z"/>
 </g>
</svg>
